HIERARCHY
ROOT Hips
{
	OFFSET 0.000000 87.230942 0.000000
	CHANNELS 6 Xposition Yposition Zposition Xrotation Yrotation Zrotation
	JOINT Pelvis
	{
		OFFSET 0.000000 0.000000 0.000000
		CHANNELS 3 Xrotation Yrotation Zrotation
		JOINT LeftUpLeg
		{
			OFFSET 12.017000 -9.376404 -2.439400
			CHANNELS 3 Xrotation Yrotation Zrotation
			JOINT LeftLeg
			{
				OFFSET -0.007312 -32.846973 2.110600
				CHANNELS 3 Xrotation Yrotation Zrotation
				JOINT LeftFoot
				{
					OFFSET 0.007312 -32.065170 -0.570400
					CHANNELS 3 Xrotation Yrotation Zrotation
					JOINT LeftToeBase
					{
						OFFSET 0.728300 -11.045900 13.180700
						CHANNELS 3 Xrotation Yrotation Zrotation
						End Site
						{
							OFFSET 0.000000 17.212589 0.000000
						}
					}
				}
				JOINT LeftPantLeg
				{
					OFFSET 0.002788 -16.709013 -3.143600
					CHANNELS 3 Xrotation Yrotation Zrotation
					End Site
					{
						OFFSET -0.605125 24.528742 0.000000
					}
				}
			}
			JOINT Left_Butt
			{
				OFFSET -6.630234 1.326584 -3.183700
				CHANNELS 3 Xrotation Yrotation Zrotation
				End Site
				{
					OFFSET -0.498041 20.188049 0.000000
				}
			}
		}
		JOINT RightUpLeg
		{
			OFFSET -11.717000 -9.376404 -2.439400
			CHANNELS 3 Xrotation Yrotation Zrotation
			JOINT RightLeg
			{
				OFFSET -0.003241 -32.846912 2.110600
				CHANNELS 3 Xrotation Yrotation Zrotation
				JOINT RightFoot
				{
					OFFSET 0.003241 -32.065136 -0.570500
					CHANNELS 3 Xrotation Yrotation Zrotation
					JOINT RightToeBase
					{
						OFFSET -0.728300 -11.045901 13.180700
						CHANNELS 3 Xrotation Yrotation Zrotation
						End Site
						{
							OFFSET 0.000000 17.212593 0.000000
						}
					}
				}
				JOINT RightPantLeg
				{
					OFFSET 0.008142 -16.708982 -3.143700
					CHANNELS 3 Xrotation Yrotation Zrotation
					End Site
					{
						OFFSET 0.605088 24.528715 0.000000
					}
				}
			}
			JOINT Right_Butt
			{
				OFFSET 6.630732 1.326584 -3.183700
				CHANNELS 3 Xrotation Yrotation Zrotation
				End Site
				{
					OFFSET 0.498015 20.188240 0.000000
				}
			}
		}
	}
	JOINT Spine
	{
		OFFSET -0.062400 7.848404 3.918300
		CHANNELS 3 Xrotation Yrotation Zrotation
		JOINT Spine1
		{
			OFFSET -0.072800 11.422302 0.713400
			CHANNELS 3 Xrotation Yrotation Zrotation
			JOINT Spine2
			{
				OFFSET -0.083200 13.054001 -1.931600
				CHANNELS 3 Xrotation Yrotation Zrotation
				JOINT Neck
				{
					OFFSET -0.092200 14.121796 -5.138800
					CHANNELS 3 Xrotation Yrotation Zrotation
					JOINT Head
					{
						OFFSET 0.000200 10.447403 -0.842000
						CHANNELS 3 Xrotation Yrotation Zrotation
						JOINT Visor
						{
							OFFSET 0.457100 25.671204 16.550400
							CHANNELS 3 Xrotation Yrotation Zrotation
							End Site
							{
								OFFSET 0.000000 26.061493 0.000000
							}
						}
						JOINT HairMidA
						{
							OFFSET 0.459400 31.585403 8.437400
							CHANNELS 3 Xrotation Yrotation Zrotation
							End Site
							{
								OFFSET 0.000000 26.061493 0.000000
							}
						}
						JOINT HairMidB
						{
							OFFSET 0.464000 33.309204 -8.389700
							CHANNELS 3 Xrotation Yrotation Zrotation
							End Site
							{
								OFFSET 0.000000 26.061493 0.000000
							}
						}
						JOINT HairMidC
						{
							OFFSET 0.466600 27.991196 -17.375099
							CHANNELS 3 Xrotation Yrotation Zrotation
							End Site
							{
								OFFSET 0.000000 26.061493 0.000000
							}
						}
						JOINT HairMidD
						{
							OFFSET 0.467700 17.888092 -21.169500
							CHANNELS 3 Xrotation Yrotation Zrotation
							End Site
							{
								OFFSET 0.000000 26.061493 0.000000
							}
						}
						JOINT HairMidE
						{
							OFFSET 5.325700 3.514603 -14.369699
							CHANNELS 3 Xrotation Yrotation Zrotation
							End Site
							{
								OFFSET 0.000000 26.061493 0.000000
							}
						}
						JOINT HairMidF
						{
							OFFSET -4.394100 3.514603 -14.372400
							CHANNELS 3 Xrotation Yrotation Zrotation
							End Site
							{
								OFFSET 0.000000 26.061493 0.000000
							}
						}
						JOINT HairLeftA
						{
							OFFSET 15.319900 25.746506 2.623300
							CHANNELS 3 Xrotation Yrotation Zrotation
							End Site
							{
								OFFSET 0.000000 26.061493 0.000000
							}
						}
						JOINT HairLeftB
						{
							OFFSET 12.619500 29.289398 -8.731499
							CHANNELS 3 Xrotation Yrotation Zrotation
							End Site
							{
								OFFSET 0.000000 26.061493 0.000000
							}
						}
						JOINT HairLeftC
						{
							OFFSET 15.714800 15.959900 2.909800
							CHANNELS 3 Xrotation Yrotation Zrotation
							End Site
							{
								OFFSET 0.000000 26.061493 0.000000
							}
						}
						JOINT HairLeftD
						{
							OFFSET 16.101700 18.437408 -7.553200
							CHANNELS 3 Xrotation Yrotation Zrotation
							End Site
							{
								OFFSET 0.000000 26.061493 0.000000
							}
						}
						JOINT HairLeftE
						{
							OFFSET 9.731900 17.915009 -18.316799
							CHANNELS 3 Xrotation Yrotation Zrotation
							End Site
							{
								OFFSET 0.000000 26.061493 0.000000
							}
						}
						JOINT HairLeftF
						{
							OFFSET 11.204300 4.953598 -9.668100
							CHANNELS 3 Xrotation Yrotation Zrotation
							End Site
							{
								OFFSET 0.000000 26.061493 0.000000
							}
						}
						JOINT HairRightA
						{
							OFFSET -14.397900 25.746307 2.615100
							CHANNELS 3 Xrotation Yrotation Zrotation
							End Site
							{
								OFFSET 0.000000 26.061493 0.000000
							}
						}
						JOINT HairRightB
						{
							OFFSET -11.691200 29.289200 -8.738199
							CHANNELS 3 Xrotation Yrotation Zrotation
							End Site
							{
								OFFSET 0.000000 26.061493 0.000000
							}
						}
						JOINT HairRightC
						{
							OFFSET -14.792900 15.959702 2.901400
							CHANNELS 3 Xrotation Yrotation Zrotation
							End Site
							{
								OFFSET 0.000000 26.061493 0.000000
							}
						}
						JOINT HairRightD
						{
							OFFSET -15.174000 18.437195 -7.561900
							CHANNELS 3 Xrotation Yrotation Zrotation
							End Site
							{
								OFFSET 0.000000 26.061493 0.000000
							}
						}
						JOINT HairRightE
						{
							OFFSET -8.798200 17.914902 -18.322001
							CHANNELS 3 Xrotation Yrotation Zrotation
							End Site
							{
								OFFSET 0.000000 26.061493 0.000000
							}
						}
						JOINT HairRightF
						{
							OFFSET -10.275200 4.953506 -9.674099
							CHANNELS 3 Xrotation Yrotation Zrotation
							End Site
							{
								OFFSET 0.000000 26.061493 0.000000
							}
						}
					}
				}
				JOINT LeftShoulder
				{
					OFFSET 5.133500 7.341202 -1.867600
					CHANNELS 3 Xrotation Yrotation Zrotation
					JOINT LeftArm
					{
						OFFSET 8.072663 0.936867 -2.176600
						CHANNELS 3 Xrotation Yrotation Zrotation
						JOINT LeftForeArm
						{
							OFFSET 31.271999 0.000000 0.000000
							CHANNELS 3 Xrotation Yrotation Zrotation
							JOINT LeftHand
							{
								OFFSET 31.771030 0.000000 0.000000
								CHANNELS 3 Xrotation Yrotation Zrotation
								JOINT LeftHandThumb1
								{
									OFFSET 2.886520 -2.557846 4.416640
									CHANNELS 3 Xrotation Yrotation Zrotation
									JOINT LeftHandThumb2
									{
										OFFSET 2.371025 -1.368912 1.368911
										CHANNELS 3 Xrotation Yrotation Zrotation
										JOINT LeftHandThumb3
										{
											OFFSET 2.243378 -1.295212 1.295213
											CHANNELS 3 Xrotation Yrotation Zrotation
											End Site
											{
												OFFSET -0.332611 2.876945 0.020015
											}
										}
									}
								}
								JOINT LeftHandIndex1
								{
									OFFSET 8.568985 -0.641945 3.119977
									CHANNELS 3 Xrotation Yrotation Zrotation
									JOINT LeftHandIndex2
									{
										OFFSET 3.348503 0.000000 0.000000
										CHANNELS 3 Xrotation Yrotation Zrotation
										JOINT LeftHandIndex3
										{
											OFFSET 3.314552 0.000000 0.000000
											CHANNELS 3 Xrotation Yrotation Zrotation
											End Site
											{
												OFFSET -1.032898 3.075485 0.678796
											}
										}
									}
								}
								JOINT LeftHandMiddle1
								{
									OFFSET 8.124603 0.000000 0.000000
									CHANNELS 3 Xrotation Yrotation Zrotation
									JOINT LeftHandMiddle2
									{
										OFFSET 4.166275 0.000000 0.000000
										CHANNELS 3 Xrotation Yrotation Zrotation
										JOINT LeftHandMiddle3
										{
											OFFSET 3.018135 0.000000 0.000000
											CHANNELS 3 Xrotation Yrotation Zrotation
											End Site
											{
												OFFSET -1.032700 2.767982 0.617226
											}
										}
									}
								}
								JOINT LeftHandRing1
								{
									OFFSET 8.571686 -0.031357 -2.884048
									CHANNELS 3 Xrotation Yrotation Zrotation
									JOINT LeftHandRing2
									{
										OFFSET 3.671181 0.000000 0.000000
										CHANNELS 3 Xrotation Yrotation Zrotation
										JOINT LeftHandRing3
										{
											OFFSET 2.728851 0.000000 0.000000
											CHANNELS 3 Xrotation Yrotation Zrotation
											End Site
											{
												OFFSET -0.815796 2.539223 0.577389
											}
										}
									}
								}
								JOINT LeftHandPinky1
								{
									OFFSET 7.854515 -0.675232 -5.213020
									CHANNELS 3 Xrotation Yrotation Zrotation
									JOINT LeftHandPinky2
									{
										OFFSET 3.068596 0.000000 0.000000
										CHANNELS 3 Xrotation Yrotation Zrotation
										JOINT LeftHandPinky3
										{
											OFFSET 2.396042 0.000000 0.000000
											CHANNELS 3 Xrotation Yrotation Zrotation
											End Site
											{
												OFFSET -0.524597 2.267998 0.567429
											}
										}
									}
								}
							}
							JOINT LeftSleeve
							{
								OFFSET 19.684509 -0.200119 0.476146
								CHANNELS 3 Xrotation Yrotation Zrotation
								End Site
								{
									OFFSET -0.031017 25.731133 -0.002868
								}
							}
						}
					}
				}
				JOINT RightShoulder
				{
					OFFSET -4.395900 7.341202 -1.870200
					CHANNELS 3 Xrotation Yrotation Zrotation
					JOINT RightArm
					{
						OFFSET -8.071453 0.936867 -2.181100
						CHANNELS 3 Xrotation Yrotation Zrotation
						JOINT RightForeArm
						{
							OFFSET -31.272011 0.000000 0.000000
							CHANNELS 3 Xrotation Yrotation Zrotation
							JOINT RightHand
							{
								OFFSET -31.771019 0.000000 0.000000
								CHANNELS 3 Xrotation Yrotation Zrotation
								JOINT RightHandThumb1
								{
									OFFSET -2.886520 -2.557808 4.416626
									CHANNELS 3 Xrotation Yrotation Zrotation
									JOINT RightHandThumb2
									{
										OFFSET -2.371056 -1.368927 1.368928
										CHANNELS 3 Xrotation Yrotation Zrotation
										JOINT RightHandThumb3
										{
											OFFSET -2.243362 -1.295204 1.295206
											CHANNELS 3 Xrotation Yrotation Zrotation
											End Site
											{
												OFFSET 0.332642 2.876938 0.020047
											}
										}
									}
								}
								JOINT RightHandIndex1
								{
									OFFSET -8.568993 -0.641953 3.120017
									CHANNELS 3 Xrotation Yrotation Zrotation
									JOINT RightHandIndex2
									{
										OFFSET -3.348518 0.000000 0.000000
										CHANNELS 3 Xrotation Yrotation Zrotation
										JOINT RightHandIndex3
										{
											OFFSET -3.314552 0.000000 0.000000
											CHANNELS 3 Xrotation Yrotation Zrotation
											End Site
											{
												OFFSET 1.032898 3.075478 0.678804
											}
										}
									}
								}
								JOINT RightHandMiddle1
								{
									OFFSET -8.124588 0.000000 0.000000
									CHANNELS 3 Xrotation Yrotation Zrotation
									JOINT RightHandMiddle2
									{
										OFFSET -4.166275 0.000000 0.000000
										CHANNELS 3 Xrotation Yrotation Zrotation
										JOINT RightHandMiddle3
										{
											OFFSET -3.018097 0.000000 0.000000
											CHANNELS 3 Xrotation Yrotation Zrotation
											End Site
											{
												OFFSET 1.032700 2.767937 0.617197
											}
										}
									}
								}
								JOINT RightHandRing1
								{
									OFFSET -8.571747 -0.031349 -2.884061
									CHANNELS 3 Xrotation Yrotation Zrotation
									JOINT RightHandRing2
									{
										OFFSET -3.671204 0.000000 0.000000
										CHANNELS 3 Xrotation Yrotation Zrotation
										JOINT RightHandRing3
										{
											OFFSET -2.728874 0.000000 0.000000
											CHANNELS 3 Xrotation Yrotation Zrotation
											End Site
											{
												OFFSET 0.815804 2.539261 0.577413
											}
										}
									}
								}
								JOINT RightHandPinky1
								{
									OFFSET -7.854561 -0.675247 -5.212970
									CHANNELS 3 Xrotation Yrotation Zrotation
									JOINT RightHandPinky2
									{
										OFFSET -3.068550 0.000000 0.000000
										CHANNELS 3 Xrotation Yrotation Zrotation
										JOINT RightHandPinky3
										{
											OFFSET -2.395981 0.000000 0.000000
											CHANNELS 3 Xrotation Yrotation Zrotation
											End Site
											{
												OFFSET 0.524605 2.267952 0.567413
											}
										}
									}
								}
							}
							JOINT RightSleeve
							{
								OFFSET -19.684753 -0.200165 0.476065
								CHANNELS 3 Xrotation Yrotation Zrotation
								End Site
								{
									OFFSET 0.031342 25.731255 -0.002917
								}
							}
						}
					}
				}
				JOINT Hood
				{
					OFFSET 0.369700 14.447800 -5.317800
					CHANNELS 3 Xrotation Yrotation Zrotation
					JOINT Hood1
					{
						OFFSET 0.001700 -5.553802 -5.895100
						CHANNELS 3 Xrotation Yrotation Zrotation
						JOINT Hood2
						{
							OFFSET -0.000200 -8.380501 0.763600
							CHANNELS 3 Xrotation Yrotation Zrotation
							End Site
							{
								OFFSET 0.000000 8.415215 0.000000
							}
						}
					}
				}
				JOINT Left_Breast
				{
					OFFSET 5.682500 3.120102 3.188800
					CHANNELS 3 Xrotation Yrotation Zrotation
					End Site
					{
						OFFSET 0.000000 10.528564 0.000000
					}
				}
				JOINT Right_Breast
				{
					OFFSET -4.947600 3.120102 3.185900
					CHANNELS 3 Xrotation Yrotation Zrotation
					End Site
					{
						OFFSET 0.000000 10.528564 0.000000
					}
				}
				JOINT Whistle
				{
					OFFSET 0.368200 11.471298 0.095400
					CHANNELS 3 Xrotation Yrotation Zrotation
					JOINT Whistle1
					{
						OFFSET -0.002000 -6.349899 7.479800
						CHANNELS 3 Xrotation Yrotation Zrotation
						JOINT Whistle2
						{
							OFFSET -0.001300 -8.217598 4.717600
							CHANNELS 3 Xrotation Yrotation Zrotation
							End Site
							{
								OFFSET 0.000000 9.475479 0.000000
							}
						}
					}
				}
			}
		}
		JOINT Belly
		{
			OFFSET 0.212400 1.593002 3.163700
			CHANNELS 3 Xrotation Yrotation Zrotation
			End Site
			{
				OFFSET 0.000000 7.496635 0.000000
			}
		}
	}
	JOINT FitGrandmaFacialAnim_Joint
	{
		OFFSET 1.150000 -86.211197 -1.220100
		CHANNELS 3 Xrotation Yrotation Zrotation
		End Site
		{
			OFFSET 0.000000 31.666618 0.000000
		}
	}
}
MOTION
Frames: 4
Frame Time: 0.016667
0.505119 47.004913 -0.225927 0.559623 -23.646135 8.946268 -0.000000 0.000001 -0.000001 -78.893992 -6.247777 46.101257 76.594568 6.761850 -5.704362 17.586509 -1.272848 -10.807152 0.000000 0.000001 0.000000 0.000002 -0.000001 -0.000001 -0.000000 0.000001 0.000000 -11.075364 -6.776033 -18.141640 108.231717 10.796959 -0.747439 12.366091 1.483546 22.569341 0.000002 -0.000001 -0.000004 -0.000000 0.000000 0.000002 -0.000000 -0.000002 0.000000 2.869126 -1.893419 -5.597656 2.227984 -1.286563 -3.027762 2.233816 -1.285672 -3.025123 -3.962408 3.288530 2.946571 -0.115029 19.920380 2.691781 0.000000 0.000000 -0.000000 0.000000 0.000000 -0.000000 0.000000 0.000000 -0.000000 0.000000 0.000000 -0.000000 0.000000 0.000000 -0.000000 0.000000 0.000000 -0.000000 0.000000 0.000000 -0.000000 0.000000 0.000000 -0.000000 0.000000 0.000000 -0.000000 0.000000 0.000000 -0.000000 0.000000 0.000000 -0.000000 0.000000 0.000000 -0.000000 0.000000 0.000000 -0.000000 0.000000 0.000000 -0.000000 0.000000 0.000000 -0.000000 0.000000 0.000000 -0.000000 0.000000 0.000000 -0.000000 0.000000 0.000000 -0.000000 0.000000 0.000000 -0.000000 0.452719 1.693819 1.739610 -1.798690 -11.700859 -58.798667 -0.000025 -83.306738 -0.000032 -56.402886 17.147800 27.573298 -1.540055 3.690185 6.142348 3.939057 7.948713 0.746809 -0.000000 -0.000001 0.000000 1.016523 3.605832 -31.478716 1.016534 3.605825 -31.478703 -0.000004 0.000001 -0.000001 1.299288 4.030450 -35.722880 1.301543 4.033578 -35.755009 0.000000 0.000000 0.000000 1.751603 4.592901 -41.733696 1.751621 4.592910 -41.733689 0.000006 0.000002 0.000001 4.911438 7.752516 -44.887880 2.046396 0.814382 -45.446969 0.000003 -0.000001 0.000001 -0.000001 -0.000001 -0.000000 5.136814 17.382616 7.477154 14.034095 22.826736 31.042277 -0.000027 121.743956 0.000025 2.429576 -25.805976 9.048808 -1.849244 -3.581781 -6.586147 4.637182 -8.634131 -0.225404 0.000001 -0.000002 0.000000 0.013963 -0.441466 3.625093 0.176776 -1.560966 12.920991 -0.000001 0.000001 0.000003 0.522931 -2.650074 22.321569 0.387278 -2.292328 19.175941 0.000002 0.000003 0.000001 0.723858 -3.093986 26.329758 0.387255 -2.292317 19.175949 0.000002 0.000000 -0.000001 1.074280 -3.717941 32.222900 0.387275 -2.292309 19.175941 0.000001 -0.000001 0.000000 0.000002 -0.000001 0.000001 0.000001 0.000001 0.000000 0.000001 0.000001 0.000000 0.000001 0.000001 0.000000 0.000001 0.000001 0.000000 0.000001 0.000001 0.000000 0.000001 0.000001 0.000000 -0.000000 -0.000001 0.000000 -0.000000 -0.000001 0.000000 0.000000 0.000000 -0.000000 -0.000000 0.000001 -0.000001 
0.497257 47.015778 -0.214887 0.591889 -23.610200 8.953423 0.000000 -0.000001 -0.000000 -78.889723 -6.290455 46.061993 76.588496 6.787413 -5.749424 17.591736 -1.269947 -10.765405 0.000000 -0.000003 -0.000000 0.000001 -0.000000 -0.000002 -0.000001 -0.000002 -0.000000 -11.153231 -6.799837 -18.119855 108.320400 10.677687 -0.731940 12.269855 1.457105 22.473189 0.000003 -0.000000 0.000001 -0.000000 0.000000 -0.000001 -0.000001 -0.000001 -0.000001 2.866301 -1.904108 -5.603812 2.224216 -1.288402 -3.033397 2.230125 -1.286497 -3.030589 -3.922927 3.288508 2.958156 -0.049251 19.944316 2.683308 0.000001 0.000000 0.000000 0.000001 0.000000 0.000000 0.000001 0.000000 0.000000 0.000001 0.000000 0.000000 0.000001 0.000000 0.000000 0.000001 0.000000 0.000000 0.000001 0.000000 0.000000 0.000001 0.000000 0.000000 0.000001 0.000000 0.000000 0.000001 0.000000 0.000000 0.000001 0.000000 0.000000 0.000001 0.000000 0.000000 0.000001 0.000000 0.000000 0.000001 0.000000 0.000000 0.000001 0.000000 0.000000 0.000001 0.000000 0.000000 0.000001 0.000000 0.000000 0.000001 0.000000 0.000000 0.000001 0.000000 0.000000 0.482384 1.632741 1.765588 -1.851252 -11.677337 -58.833187 0.000186 -83.371140 0.000170 -56.190720 17.156055 27.669300 -1.540053 3.690186 6.142348 3.939057 7.948718 0.746810 0.000000 0.000004 -0.000000 1.016524 3.605839 -31.478716 1.016537 3.605825 -31.478699 0.000001 0.000000 -0.000001 1.299286 4.030454 -35.722876 1.301542 4.033581 -35.755012 0.000005 0.000000 -0.000001 1.751604 4.592906 -41.733696 1.751615 4.592909 -41.733692 0.000003 0.000002 0.000001 4.911437 7.752522 -44.887877 2.046403 0.814379 -45.446969 0.000000 -0.000000 0.000001 -0.000000 0.000001 0.000000 5.151216 17.427067 7.474813 14.053417 22.660442 31.058127 0.000007 121.812339 -0.000010 2.471117 -25.904529 9.104251 -1.849243 -3.581784 -6.586143 4.637179 -8.634134 -0.225406 0.000001 -0.000001 0.000003 0.013958 -0.441487 3.625078 0.176775 -1.560931 12.920998 -0.000001 -0.000004 0.000002 0.522932 -2.650097 22.321545 0.387267 -2.292315 19.175939 -0.000001 0.000000 -0.000002 0.723856 -3.093989 26.329729 0.387245 -2.292306 19.175947 0.000000 0.000002 -0.000002 1.074286 -3.717942 32.222855 0.387257 -2.292288 19.175944 0.000001 -0.000001 0.000001 0.000001 0.000002 0.000001 0.000000 0.000000 0.000000 0.000000 0.000000 0.000000 0.000000 0.000000 0.000000 0.000000 0.000000 0.000000 0.000000 0.000000 0.000000 0.000000 0.000000 0.000001 -0.000001 0.000000 0.000000 -0.000001 0.000000 0.000000 0.000000 -0.000001 -0.000000 0.000000 -0.000001 -0.000000 
0.489095 47.026176 -0.207289 0.619460 -23.577567 8.959496 0.000000 0.000002 0.000001 -78.877333 -6.334297 46.022607 76.578107 6.816234 -5.793694 17.601003 -1.267899 -10.729681 -0.000000 -0.000000 -0.000000 0.000001 0.000001 0.000000 -0.000000 -0.000001 0.000000 -11.220093 -6.828395 -18.096374 108.395573 10.562258 -0.720866 12.181907 1.434462 22.402549 0.000003 -0.000000 -0.000002 0.000000 0.000000 0.000001 0.000000 0.000002 0.000001 2.867983 -1.914279 -5.609855 2.223864 -1.290200 -3.038300 2.230376 -1.288413 -3.035256 -3.886562 3.294390 2.964091 -0.011392 19.978532 2.670442 0.000000 -0.000000 0.000001 0.000000 -0.000000 0.000001 0.000000 -0.000000 0.000001 0.000000 -0.000000 0.000001 0.000000 -0.000000 0.000001 0.000000 -0.000000 0.000001 0.000000 -0.000000 0.000001 0.000000 -0.000000 0.000001 0.000000 -0.000000 0.000001 0.000000 -0.000000 0.000001 0.000000 -0.000000 0.000001 0.000000 -0.000000 0.000001 0.000000 -0.000000 0.000001 0.000000 -0.000000 0.000001 0.000000 -0.000000 0.000001 0.000000 -0.000000 0.000001 0.000000 -0.000000 0.000001 0.000000 -0.000000 0.000001 0.000000 -0.000000 0.000001 0.506471 1.585641 1.768911 -1.905206 -11.648051 -58.840604 0.000194 -83.445951 0.000254 -56.101562 17.119307 27.700872 -1.540054 3.690183 6.142348 3.939057 7.948716 0.746809 -0.000000 0.000002 -0.000000 1.016523 3.605830 -31.478716 1.016539 3.605820 -31.478699 -0.000004 0.000000 0.000001 1.299287 4.030451 -35.722876 1.301541 4.033579 -35.755009 0.000001 0.000000 -0.000001 1.751602 4.592903 -41.733696 1.751622 4.592904 -41.733682 0.000001 0.000000 0.000000 4.911438 7.752517 -44.887880 2.046399 0.814382 -45.446972 0.000003 -0.000000 0.000001 0.000000 -0.000001 -0.000003 5.163597 17.463971 7.466052 14.080606 22.520689 31.066829 -0.000018 121.886679 0.000029 2.595679 -26.024057 9.128053 -1.849241 -3.581782 -6.586146 4.637185 -8.634131 -0.225405 0.000002 0.000002 -0.000002 0.013965 -0.441481 3.625085 0.176771 -1.560956 12.920991 0.000002 -0.000002 0.000003 0.522924 -2.650090 22.321555 0.387278 -2.292320 19.175932 0.000001 0.000001 0.000006 0.723842 -3.094007 26.329744 0.387284 -2.292315 19.175944 -0.000001 -0.000000 -0.000003 1.074290 -3.717936 32.222855 0.387250 -2.292290 19.175956 -0.000001 0.000001 -0.000002 -0.000002 0.000002 0.000001 0.000000 0.000001 0.000000 0.000000 0.000001 0.000000 0.000000 0.000001 0.000000 0.000000 0.000001 0.000000 0.000000 0.000001 0.000000 -0.000000 0.000001 0.000000 -0.000000 0.000001 0.000000 -0.000000 0.000001 0.000000 0.000000 -0.000002 0.000000 0.000000 0.000002 0.000001 
0.479902 47.036140 -0.203696 0.643374 -23.553656 8.966506 -0.000000 0.000001 -0.000001 -78.852157 -6.377512 45.988234 76.563538 6.847652 -5.837613 17.611527 -1.268096 -10.711665 -0.000000 0.000001 0.000000 -0.000001 -0.000002 0.000001 -0.000001 0.000003 -0.000003 -11.277433 -6.856063 -18.074446 108.455857 10.455139 -0.714137 12.104610 1.415883 22.356141 0.000001 0.000002 0.000002 0.000000 -0.000001 -0.000003 -0.000000 -0.000002 -0.000000 2.873683 -1.924708 -5.616614 2.225576 -1.291794 -3.043522 2.232482 -1.289739 -3.040206 -3.853553 3.304077 2.962691 -0.005854 20.019085 2.662788 -0.000000 0.000000 0.000000 -0.000000 0.000000 0.000000 -0.000000 0.000000 0.000000 -0.000000 0.000000 0.000000 -0.000000 0.000000 0.000000 -0.000000 0.000000 0.000000 -0.000000 0.000000 0.000000 -0.000000 0.000000 0.000000 -0.000000 0.000000 0.000000 -0.000000 0.000000 0.000000 -0.000000 0.000000 0.000000 -0.000000 0.000000 0.000000 -0.000000 0.000000 0.000000 -0.000000 0.000000 0.000000 -0.000000 0.000000 0.000000 -0.000000 0.000000 0.000000 -0.000000 0.000000 0.000000 -0.000000 0.000000 0.000000 -0.000000 0.000000 0.000000 0.522517 1.557776 1.745667 -1.958937 -11.606907 -58.821541 0.000110 -83.536813 0.000116 -56.009740 17.105239 27.723927 -1.540055 3.690186 6.142349 3.939059 7.948711 0.746810 -0.000000 -0.000001 -0.000001 1.016523 3.605834 -31.478716 1.016538 3.605829 -31.478703 0.000001 0.000000 0.000002 1.299287 4.030448 -35.722876 1.301535 4.033580 -35.755012 0.000004 -0.000001 -0.000001 1.751602 4.592904 -41.733696 1.751622 4.592913 -41.733689 0.000005 0.000001 0.000001 4.911438 7.752520 -44.887873 2.046392 0.814384 -45.446965 0.000004 0.000000 -0.000001 -0.000001 -0.000001 -0.000000 5.172909 17.491988 7.451950 14.105754 22.416228 31.064114 0.000018 121.951375 -0.000010 2.794238 -26.106445 9.140217 -1.849242 -3.581778 -6.586139 4.637188 -8.634130 -0.225403 0.000001 0.000002 -0.000003 0.013967 -0.441480 3.625081 0.176768 -1.560948 12.920998 -0.000001 -0.000000 -0.000001 0.522940 -2.650088 22.321555 0.387275 -2.292320 19.175941 0.000000 -0.000001 0.000000 0.723841 -3.093988 26.329749 0.387287 -2.292322 19.175934 0.000001 0.000003 -0.000001 1.074288 -3.717946 32.222865 0.387278 -2.292319 19.175927 -0.000003 0.000000 -0.000002 -0.000000 0.000002 0.000004 -0.000000 -0.000003 -0.000000 -0.000000 -0.000003 -0.000000 -0.000000 -0.000003 -0.000000 -0.000000 -0.000003 -0.000000 -0.000000 -0.000003 -0.000000 -0.000000 -0.000003 0.000000 -0.000000 -0.000001 -0.000000 -0.000000 -0.000001 -0.000000 0.000000 0.000001 -0.000000 -0.000000 0.000001 -0.000001 
